<?xml version="1.0" standalone="no"?>
<!DOCTYPE svg PUBLIC "-//W3C//DTD SVG 20010904//EN"
 "http://www.w3.org/TR/2001/REC-SVG-20010904/DTD/svg10.dtd">
<svg version="1.0" xmlns="http://www.w3.org/2000/svg"
 width="300.000000pt" height="300.000000pt" viewBox="0 0 300.000000 300.000000"
 preserveAspectRatio="xMidYMid meet">
<metadata>
Created by potrace 1.10, written by Peter Selinger 2001-2011
</metadata>
<g transform="translate(0.000000,300.000000) scale(0.100000,-0.100000)"
fill="#f58a07" stroke="none">
<path d="M590 2976 c0 -2 7 -32 16 -66 18 -71 15 -87 -37 -226 -85 -227 -141
-467 -159 -682 -27 -314 42 -603 189 -794 l49 -64 -19 -120 c-10 -65 -19 -122
-19 -125 0 -4 -28 -12 -62 -18 -59 -10 -64 -9 -115 18 -29 16 -53 26 -53 23 0
-28 78 -132 153 -204 56 -55 84 -89 76 -92 -8 -3 -47 -10 -87 -16 -39 -7 -70
-16 -67 -20 3 -5 49 -32 103 -61 53 -28 116 -64 139 -80 34 -22 50 -27 78 -22
l35 6 0 -42 c0 -22 2 -41 4 -41 1 0 18 5 36 11 24 9 34 9 39 0 4 -6 33 -16 65
-22 84 -15 183 -49 430 -148 339 -136 419 -157 514 -139 52 9 79 30 98 74 10
24 22 33 49 38 40 8 101 57 110 89 4 12 16 41 28 64 l22 43 -33 60 c-19 34
-30 65 -26 72 4 7 25 36 46 64 30 40 148 263 148 279 0 2 -21 -3 -46 -12 -61
-21 -89 -8 -104 47 -15 55 7 132 53 185 l34 39 -35 112 -35 113 57 52 c167
152 268 394 327 779 19 121 23 188 23 405 1 159 -3 269 -9 283 -10 22 -13 19
-60 -50 -119 -176 -477 -493 -915 -810 l-105 -76 -86 5 -85 6 -23 61 c-33 87
-119 248 -194 363 -69 107 -253 357 -324 440 -40 48 -223 211 -223 199z m139
-167 c88 -86 361 -447 361 -477 0 -6 4 -12 9 -14 18 -6 138 -221 192 -343 38
-85 69 -218 69 -293 0 -54 -2 -59 -31 -76 -17 -10 -32 -16 -34 -14 -5 5 -98
193 -125 253 -81 183 -161 330 -257 476 -90 138 -142 257 -161 372 -4 21 -11
38 -17 39 -14 1 -68 -112 -105 -220 -63 -186 -92 -437 -70 -619 15 -122 51
-251 81 -289 15 -19 29 -34 31 -32 2 1 23 -11 48 -28 25 -17 86 -55 135 -84
50 -29 91 -53 92 -54 1 -1 -8 -13 -20 -26 -12 -14 -42 -50 -67 -80 -25 -30
-51 -61 -57 -68 -7 -7 -13 -18 -13 -23 0 -6 -5 -7 -10 -4 -6 4 -9 3 -8 -2 2
-5 -9 -23 -24 -41 l-27 -32 -42 42 c-23 23 -61 71 -84 107 -163 252 -197 603
-101 1036 17 73 80 286 96 320 31 67 60 164 60 201 l0 44 27 -23 c14 -12 38
-34 52 -48z m1806 -172 c-36 -124 -77 -227 -88 -220 -6 3 -7 1 -3 -6 9 -14
-124 -272 -246 -474 -50 -84 -110 -191 -132 -240 l-42 -87 -49 51 c-28 28 -77
71 -110 96 -68 51 -224 133 -255 133 -11 0 -20 3 -20 8 0 8 170 132 182 132 4
1 20 13 35 28 16 15 62 52 102 82 40 30 78 60 84 65 7 6 46 37 87 70 108 86
270 233 349 318 19 21 41 35 48 32 8 -2 11 0 8 5 -4 6 11 32 32 59 21 27 39
45 41 42 1 -4 -9 -47 -23 -94z m42 -249 c-27 -465 -154 -834 -340 -992 l-41
-35 -21 37 -22 37 81 85 c112 117 141 156 203 278 32 62 36 75 25 92 -8 13 -9
27 -3 38 12 23 56 206 76 312 8 47 20 107 25 133 6 27 10 64 10 83 0 19 3 34
7 34 3 0 3 -46 0 -102z m-1755 -5 c59 -62 204 -294 278 -448 80 -165 80 -162
33 -181 -21 -9 -39 -17 -41 -19 -1 -1 9 -32 23 -68 l25 -67 -33 -1 c-17 -1
-47 0 -64 1 -30 1 -33 -1 -33 -25 0 -24 -3 -22 -35 25 -19 29 -68 93 -108 144
-93 115 -130 170 -118 174 14 5 66 -23 139 -74 35 -24 66 -44 69 -44 3 0 -2
12 -12 26 -16 25 -16 26 3 19 19 -6 20 -3 11 32 -21 78 -63 202 -112 323 -65
164 -88 230 -79 230 4 0 28 -21 54 -47z m1673 -258 c-15 -71 -39 -162 -54
-204 -16 -42 -31 -85 -35 -96 -8 -20 -8 -20 9 0 17 20 17 20 10 -5 -13 -46
-98 -178 -139 -219 -32 -31 -52 -41 -89 -46 l-48 -7 52 53 c64 66 128 164 181
275 41 88 111 290 124 359 4 22 9 35 11 29 2 -7 -8 -69 -22 -139z m-1691 -73
c60 -87 110 -170 112 -185 l3 -28 -37 22 c-20 13 -48 30 -62 39 -44 28 -79 40
-86 29 -3 -6 8 -33 25 -61 20 -31 28 -55 23 -62 -5 -6 -6 -49 -2 -96 4 -47 6
-86 5 -88 -1 -1 -16 24 -33 55 -39 74 -60 148 -72 254 -10 82 -3 279 9 279 3
0 55 -71 115 -158z m746 -200 c24 -11 187 -115 247 -157 52 -37 129 -122 147
-161 9 -21 21 -46 25 -54 5 -9 12 -40 16 -69 l7 -54 -93 8 c-52 4 -119 7 -150
7 l-56 0 -53 116 c-77 169 -203 351 -242 352 -10 0 -18 7 -18 16 0 14 11 16
73 12 39 -3 83 -10 97 -16z m-114 -209 c62 -65 129 -259 158 -460 l12 -84 -23
30 c-37 47 -158 123 -190 119 -51 -6 -38 -32 39 -78 40 -23 90 -58 111 -77 21
-19 45 -32 53 -29 10 4 14 -4 15 -32 0 -20 2 -47 5 -60 4 -21 1 -20 -31 11
-56 55 -144 96 -237 112 -106 18 -308 24 -308 9 0 -5 16 -26 36 -45 20 -18 40
-42 45 -51 8 -15 5 -16 -26 -11 -23 4 -35 2 -35 -6 0 -6 5 -11 11 -11 19 0
129 -52 129 -61 0 -5 4 -9 10 -9 5 0 53 -26 107 -59 75 -44 111 -60 153 -65
30 -4 85 -16 121 -26 71 -19 64 -13 209 -176 53 -59 78 -79 87 -70 2 2 -30 43
-72 90 -42 47 -75 91 -72 98 2 7 -7 30 -20 50 -30 49 -29 60 10 92 24 21 39
26 61 22 16 -3 54 -6 86 -6 l57 0 7 -55 c9 -79 50 -179 105 -260 80 -116 79
-111 13 -109 -55 1 -121 -21 -137 -45 -7 -13 -167 42 -218 75 -22 14 -35 29
-31 36 4 6 3 8 -4 4 -6 -3 -46 17 -89 46 -93 62 -274 156 -370 191 -178 67
-439 117 -457 89 -3 -5 29 -34 71 -65 43 -31 74 -57 71 -57 -8 0 -207 76 -263
100 -27 12 -61 26 -75 30 l-25 7 30 7 c71 17 72 18 79 103 4 43 9 99 13 125
l5 47 35 -26 c18 -14 35 -24 36 -22 2 2 34 42 72 89 84 104 124 142 138 133 6
-3 7 -1 3 5 -10 16 44 87 82 108 23 12 32 23 29 35 -4 14 5 19 46 24 69 10
145 37 228 82 69 37 74 44 72 101 -1 17 3 15 33 -15z m673 -234 c17 -28 28
-55 25 -61 -4 -6 -2 -8 3 -5 11 7 44 -62 57 -114 5 -23 2 -28 -19 -33 -14 -4
-44 -23 -67 -44 -40 -36 -41 -36 -35 -11 9 36 10 280 2 302 -13 32 2 17 34
-34z m-194 -85 c79 -8 79 -8 66 -110 -6 -49 -17 -120 -25 -158 -12 -63 -12
-70 4 -86 17 -17 17 -20 2 -42 -23 -34 -22 -33 -124 -27 -92 5 -93 5 -123 -23
-17 -15 -34 -28 -38 -28 -4 0 -7 25 -7 55 0 52 1 55 25 55 33 0 49 32 41 86
-3 26 -1 44 5 46 7 2 5 41 -6 118 -10 63 -19 118 -21 121 -3 6 113 2 201 -7z
m-218 -46 c-3 -7 -5 -2 -5 12 0 14 2 19 5 13 2 -7 2 -19 0 -25z m10 -60 c-3
-7 -5 -2 -5 12 0 14 2 19 5 13 2 -7 2 -19 0 -25z m-241 -13 c62 -37 143 -117
125 -123 -6 -2 -32 14 -58 36 -27 22 -74 54 -106 72 -31 17 -54 36 -51 41 9
16 28 10 90 -26z m752 -40 c16 -35 16 -35 -23 -35 -20 0 -51 -7 -70 -14 -44
-19 -44 -9 -2 31 52 49 79 54 95 18z m-523 -7 c3 -13 7 -57 8 -98 2 -59 -1
-75 -13 -77 -27 -5 -40 12 -46 60 -6 39 -4 47 9 47 9 0 17 -11 20 -27 2 -16 2
5 -1 45 -3 50 -1 72 6 72 7 0 14 -10 17 -22z m22 5 c-4 -3 -7 0 -7 7 0 7 3 10
7 7 3 -4 3 -10 0 -14z m323 7 c11 -6 18 -16 15 -23 -2 -6 -6 -25 -10 -40 -5
-24 -10 -28 -33 -25 -24 3 -27 7 -23 33 3 31 18 65 27 65 3 0 14 -5 24 -10z
m180 -60 c26 -16 -14 -47 -71 -52 -27 -3 -57 -12 -67 -22 -24 -21 -31 -20 -25
3 7 27 32 48 79 65 47 17 64 19 84 6z m-195 -50 c10 0 11 -9 3 -40 -9 -33 -15
-40 -34 -40 -25 0 -28 7 -24 50 3 34 9 42 27 36 8 -3 21 -6 28 -6z m-621 -95
l-2 -50 15 43 c8 23 20 42 26 42 32 -1 137 -125 137 -162 0 -16 -9 -18 -73
-18 -101 0 -163 31 -223 113 -63 84 -61 88 39 85 l82 -3 -1 -50z m716 -12 c0
-32 -33 -91 -64 -113 -30 -22 -73 -39 -80 -33 -11 11 -6 77 7 103 17 34 47 39
48 8 1 -17 3 -15 11 12 11 39 23 50 56 50 17 0 22 -6 22 -27z m-1579 -127
c137 -66 344 -144 402 -152 l42 -5 -45 41 c-25 23 -62 53 -83 67 -20 14 -35
28 -33 31 3 2 49 -3 103 -13 217 -39 456 -140 671 -286 148 -101 186 -121 275
-151 53 -17 72 -29 83 -51 8 -15 30 -35 49 -44 41 -20 42 -23 13 -50 -37 -33
-93 -46 -179 -41 -101 6 -197 52 -292 138 -52 48 -92 73 -184 115 -132 59
-231 95 -265 95 -31 0 -13 -13 47 -35 63 -22 132 -63 319 -189 201 -135 238
-149 394 -154 67 -2 122 -8 122 -14 0 -20 -53 -57 -91 -63 -81 -14 -136 2
-480 136 -263 103 -429 159 -470 159 -25 0 -24 17 1 25 11 3 20 11 20 16 0 12
-6 11 -64 -6 -67 -20 -69 -20 -64 20 4 32 2 34 -27 37 l-30 3 45 27 c39 23 42
27 25 33 -85 27 -248 153 -358 275 -45 50 -73 90 -64 90 3 0 56 -25 118 -54z
m1618 0 c1 -10 -16 -35 -37 -55 -21 -20 -53 -55 -69 -79 -17 -23 -33 -39 -36
-35 -9 16 -39 114 -36 117 2 1 33 13 68 27 44 16 69 32 80 51 14 23 17 25 23
10 4 -9 7 -25 7 -36z m120 -42 c2 -2 -10 -37 -27 -79 -27 -67 -116 -206 -131
-205 -10 1 -81 103 -81 116 0 17 57 94 104 140 38 38 44 40 86 36 25 -3 47 -6
49 -8z m-1563 -234 c32 -22 64 -40 72 -40 12 0 12 -3 2 -15 -25 -30 -48 -26
-144 27 -82 45 -93 54 -74 60 55 15 87 8 144 -32z m1434 -150 c24 -15 6 -21
-28 -9 -33 11 -111 9 -147 -5 -12 -5 -10 -2 5 8 28 17 146 22 170 6z m-133
-37 c4 -11 -26 -27 -35 -19 -2 3 -2 12 2 21 6 18 27 16 33 -2z m113 -124 c-12
-22 -67 -59 -88 -59 -9 0 -9 7 3 31 16 30 43 47 78 48 15 1 16 -2 7 -20z"/>
</g>
</svg>
